<mxfile host="app.diagrams.net" modified="2024-01-15T13:01:08.018Z" agent="Mozilla/5.0 (Windows NT 10.0; Win64; x64) AppleWebKit/537.36 (KHTML, like Gecko) Chrome/120.0.0.0 Safari/537.36" etag="xaotjBDE8al2oubTlx8K" version="22.1.18" type="github">
  <diagram id="C5RBs43oDa-KdzZeNtuy" name="Page-1">
    <mxGraphModel dx="543" dy="521" grid="1" gridSize="10" guides="1" tooltips="1" connect="1" arrows="1" fold="1" page="1" pageScale="1" pageWidth="827" pageHeight="1169" math="0" shadow="0">
      <root>
        <mxCell id="WIyWlLk6GJQsqaUBKTNV-0" />
        <mxCell id="WIyWlLk6GJQsqaUBKTNV-1" parent="WIyWlLk6GJQsqaUBKTNV-0" />
        <mxCell id="WIyWlLk6GJQsqaUBKTNV-2" value="" style="rounded=0;html=1;jettySize=auto;orthogonalLoop=1;fontSize=11;endArrow=block;endFill=0;endSize=8;strokeWidth=1;shadow=0;labelBackgroundColor=none;edgeStyle=orthogonalEdgeStyle;" parent="WIyWlLk6GJQsqaUBKTNV-1" source="WIyWlLk6GJQsqaUBKTNV-3" edge="1">
          <mxGeometry relative="1" as="geometry">
            <mxPoint x="280" y="200" as="targetPoint" />
          </mxGeometry>
        </mxCell>
        <mxCell id="WIyWlLk6GJQsqaUBKTNV-3" value="EmployeeDataFetcher" style="rounded=1;whiteSpace=wrap;html=1;fontSize=12;glass=0;strokeWidth=1;shadow=0;" parent="WIyWlLk6GJQsqaUBKTNV-1" vertex="1">
          <mxGeometry x="220" y="80" width="120" height="40" as="geometry" />
        </mxCell>
        <mxCell id="MfGb60g8dlHTMGWCJdFX-2" style="edgeStyle=orthogonalEdgeStyle;rounded=0;orthogonalLoop=1;jettySize=auto;html=1;" edge="1" parent="WIyWlLk6GJQsqaUBKTNV-1" source="MfGb60g8dlHTMGWCJdFX-1">
          <mxGeometry relative="1" as="geometry">
            <mxPoint x="280" y="270" as="targetPoint" />
          </mxGeometry>
        </mxCell>
        <mxCell id="MfGb60g8dlHTMGWCJdFX-1" value="Read Config" style="rounded=1;whiteSpace=wrap;html=1;" vertex="1" parent="WIyWlLk6GJQsqaUBKTNV-1">
          <mxGeometry x="220" y="200" width="120" height="30" as="geometry" />
        </mxCell>
        <mxCell id="MfGb60g8dlHTMGWCJdFX-4" style="edgeStyle=orthogonalEdgeStyle;rounded=0;orthogonalLoop=1;jettySize=auto;html=1;" edge="1" parent="WIyWlLk6GJQsqaUBKTNV-1" source="MfGb60g8dlHTMGWCJdFX-3">
          <mxGeometry relative="1" as="geometry">
            <mxPoint x="200" y="360" as="targetPoint" />
          </mxGeometry>
        </mxCell>
        <mxCell id="MfGb60g8dlHTMGWCJdFX-5" value="No" style="edgeLabel;html=1;align=center;verticalAlign=middle;resizable=0;points=[];" vertex="1" connectable="0" parent="MfGb60g8dlHTMGWCJdFX-4">
          <mxGeometry x="-0.1732" relative="1" as="geometry">
            <mxPoint as="offset" />
          </mxGeometry>
        </mxCell>
        <mxCell id="MfGb60g8dlHTMGWCJdFX-8" style="edgeStyle=orthogonalEdgeStyle;rounded=0;orthogonalLoop=1;jettySize=auto;html=1;" edge="1" parent="WIyWlLk6GJQsqaUBKTNV-1" source="MfGb60g8dlHTMGWCJdFX-3">
          <mxGeometry relative="1" as="geometry">
            <mxPoint x="400" y="360" as="targetPoint" />
          </mxGeometry>
        </mxCell>
        <mxCell id="MfGb60g8dlHTMGWCJdFX-9" value="Yes" style="edgeLabel;html=1;align=center;verticalAlign=middle;resizable=0;points=[];" vertex="1" connectable="0" parent="MfGb60g8dlHTMGWCJdFX-8">
          <mxGeometry x="0.339" relative="1" as="geometry">
            <mxPoint as="offset" />
          </mxGeometry>
        </mxCell>
        <mxCell id="MfGb60g8dlHTMGWCJdFX-3" value="Time To get?" style="rhombus;whiteSpace=wrap;html=1;" vertex="1" parent="WIyWlLk6GJQsqaUBKTNV-1">
          <mxGeometry x="240" y="270" width="80" height="80" as="geometry" />
        </mxCell>
        <mxCell id="MfGb60g8dlHTMGWCJdFX-7" style="edgeStyle=orthogonalEdgeStyle;rounded=0;orthogonalLoop=1;jettySize=auto;html=1;entryX=0.5;entryY=0;entryDx=0;entryDy=0;" edge="1" parent="WIyWlLk6GJQsqaUBKTNV-1" source="MfGb60g8dlHTMGWCJdFX-6" target="MfGb60g8dlHTMGWCJdFX-3">
          <mxGeometry relative="1" as="geometry">
            <mxPoint x="270" y="260" as="targetPoint" />
            <Array as="points">
              <mxPoint x="91" y="370" />
              <mxPoint x="91" y="270" />
            </Array>
          </mxGeometry>
        </mxCell>
        <mxCell id="MfGb60g8dlHTMGWCJdFX-6" value="Wait" style="rounded=1;whiteSpace=wrap;html=1;" vertex="1" parent="WIyWlLk6GJQsqaUBKTNV-1">
          <mxGeometry x="160" y="360" width="80" height="20" as="geometry" />
        </mxCell>
        <mxCell id="MfGb60g8dlHTMGWCJdFX-11" style="edgeStyle=orthogonalEdgeStyle;rounded=0;orthogonalLoop=1;jettySize=auto;html=1;" edge="1" parent="WIyWlLk6GJQsqaUBKTNV-1" source="MfGb60g8dlHTMGWCJdFX-10">
          <mxGeometry relative="1" as="geometry">
            <mxPoint x="397.0999999999999" y="420" as="targetPoint" />
          </mxGeometry>
        </mxCell>
        <mxCell id="MfGb60g8dlHTMGWCJdFX-10" value="Get Images" style="rounded=1;whiteSpace=wrap;html=1;" vertex="1" parent="WIyWlLk6GJQsqaUBKTNV-1">
          <mxGeometry x="360" y="360" width="74" height="20" as="geometry" />
        </mxCell>
        <mxCell id="MfGb60g8dlHTMGWCJdFX-14" style="edgeStyle=orthogonalEdgeStyle;rounded=0;orthogonalLoop=1;jettySize=auto;html=1;" edge="1" parent="WIyWlLk6GJQsqaUBKTNV-1" source="MfGb60g8dlHTMGWCJdFX-13">
          <mxGeometry relative="1" as="geometry">
            <mxPoint x="500" y="510" as="targetPoint" />
          </mxGeometry>
        </mxCell>
        <mxCell id="MfGb60g8dlHTMGWCJdFX-15" value="Yes" style="edgeLabel;html=1;align=center;verticalAlign=middle;resizable=0;points=[];" vertex="1" connectable="0" parent="MfGb60g8dlHTMGWCJdFX-14">
          <mxGeometry x="0.2767" y="2" relative="1" as="geometry">
            <mxPoint as="offset" />
          </mxGeometry>
        </mxCell>
        <mxCell id="MfGb60g8dlHTMGWCJdFX-18" style="edgeStyle=orthogonalEdgeStyle;rounded=0;orthogonalLoop=1;jettySize=auto;html=1;exitX=0;exitY=0.5;exitDx=0;exitDy=0;" edge="1" parent="WIyWlLk6GJQsqaUBKTNV-1" source="MfGb60g8dlHTMGWCJdFX-13">
          <mxGeometry relative="1" as="geometry">
            <mxPoint x="281.9047619047619" y="270" as="targetPoint" />
            <Array as="points">
              <mxPoint x="357" y="420" />
              <mxPoint x="470" y="420" />
              <mxPoint x="470" y="270" />
            </Array>
          </mxGeometry>
        </mxCell>
        <mxCell id="MfGb60g8dlHTMGWCJdFX-19" value="No" style="edgeLabel;html=1;align=center;verticalAlign=middle;resizable=0;points=[];" vertex="1" connectable="0" parent="MfGb60g8dlHTMGWCJdFX-18">
          <mxGeometry x="-0.5289" y="1" relative="1" as="geometry">
            <mxPoint x="-93" y="21" as="offset" />
          </mxGeometry>
        </mxCell>
        <mxCell id="MfGb60g8dlHTMGWCJdFX-13" value="Images modified?" style="rhombus;whiteSpace=wrap;html=1;" vertex="1" parent="WIyWlLk6GJQsqaUBKTNV-1">
          <mxGeometry x="357" y="420" width="80" height="80" as="geometry" />
        </mxCell>
        <mxCell id="MfGb60g8dlHTMGWCJdFX-17" style="edgeStyle=orthogonalEdgeStyle;rounded=0;orthogonalLoop=1;jettySize=auto;html=1;entryX=0.5;entryY=0;entryDx=0;entryDy=0;" edge="1" parent="WIyWlLk6GJQsqaUBKTNV-1" source="MfGb60g8dlHTMGWCJdFX-16" target="MfGb60g8dlHTMGWCJdFX-3">
          <mxGeometry relative="1" as="geometry">
            <mxPoint x="560" y="320" as="targetPoint" />
            <Array as="points">
              <mxPoint x="540" y="520" />
              <mxPoint x="540" y="270" />
            </Array>
          </mxGeometry>
        </mxCell>
        <mxCell id="MfGb60g8dlHTMGWCJdFX-16" value="Update Db" style="rounded=1;whiteSpace=wrap;html=1;" vertex="1" parent="WIyWlLk6GJQsqaUBKTNV-1">
          <mxGeometry x="470" y="510" width="60" height="20" as="geometry" />
        </mxCell>
      </root>
    </mxGraphModel>
  </diagram>
</mxfile>
